<svg xmlns="http://www.w3.org/2000/svg" xmlns:xlink="http://www.w3.org/1999/xlink" width="500" zoomAndPan="magnify" viewBox="0 0 375 374.999991" height="500" preserveAspectRatio="xMidYMid meet" version="1.0"><path fill="#000000" d="M 187.5 187.5 L 187.5 375 C 193.542969 351.910156 211.054688 297.832031 260.796875 250.722656 C 304.648438 209.195312 351.757812 193.542969 375 187.5 C 312.550781 187.5 249.949219 187.5 187.5 187.5 Z M 187.5 187.5 " fill-opacity="1" fill-rule="evenodd"/><path fill="#000000" d="M 187.5 187.5 L 187.5 0 C 181.457031 23.089844 163.945312 77.167969 114.203125 124.277344 C 70.195312 165.804688 23.089844 181.457031 0 187.5 C 62.449219 187.5 125.050781 187.5 187.5 187.5 Z M 187.5 187.5 " fill-opacity="1" fill-rule="evenodd"/><path fill="#000000" d="M 187.5 187.5 L 187.5 375 C 193.542969 351.910156 211.054688 297.832031 260.796875 250.722656 C 304.648438 209.195312 351.757812 193.542969 375 187.5 C 312.550781 187.5 249.949219 187.5 187.5 187.5 Z M 187.5 187.5 " fill-opacity="1" fill-rule="evenodd"/><path fill="#000000" d="M 187.5 187.5 L 187.5 0 C 181.457031 23.089844 163.945312 77.167969 114.203125 124.277344 C 70.195312 165.804688 23.089844 181.457031 0 187.5 C 62.449219 187.5 125.050781 187.5 187.5 187.5 Z M 187.5 187.5 " fill-opacity="1" fill-rule="evenodd"/></svg>